<svg width="13" height="13" viewBox="0 0 13 13" fill="none" xmlns="http://www.w3.org/2000/svg">
<g id="Vector">
<path d="M3.75556 0H2.02222C0.938889 0 0 0.938889 0 2.02222V3.68333C0 4.83889 0.938889 5.77778 2.02222 5.77778H3.68333C4.83889 5.77778 5.77778 4.83889 5.77778 3.75556V2.02222C5.77778 0.938889 4.83889 0 3.75556 0ZM4.33333 3.75556C4.33333 4.04444 4.04444 4.33333 3.75556 4.33333H2.02222C1.73333 4.33333 1.44444 4.04444 1.44444 3.75556V2.02222C1.44444 1.73333 1.73333 1.44444 2.02222 1.44444H3.68333C4.04444 1.44444 4.33333 1.73333 4.33333 2.02222V3.75556Z" fill="#9867EA"/>
<path d="M10.9778 0H9.31667C8.16111 0 7.22222 0.938889 7.22222 2.02222V3.68333C7.22222 4.83889 8.16111 5.70555 9.24444 5.70555H10.9056C12.0611 5.70555 12.9278 4.76667 12.9278 3.68333V2.02222C13 0.938889 12.0611 0 10.9778 0ZM11.5556 3.75556C11.5556 4.04444 11.2667 4.33333 10.9778 4.33333H9.31667C8.95555 4.33333 8.66667 4.04444 8.66667 3.75556V2.02222C8.66667 1.73333 8.95556 1.44444 9.24444 1.44444H10.9056C11.2667 1.44444 11.5556 1.73333 11.5556 2.02222V3.75556Z" fill="#9867EA"/>
<path d="M10.9778 7.22222H9.31667C8.16111 7.22222 7.29444 8.16111 7.29444 9.24444V10.9056C7.29444 12.0611 8.23333 12.9278 9.31667 12.9278H10.9778C12.1333 12.9278 13 11.9889 13 10.9056V9.24444C13 8.16111 12.0611 7.22222 10.9778 7.22222ZM11.5556 10.9778C11.5556 11.3389 11.2667 11.5556 10.9778 11.5556H9.31667C8.95555 11.5556 8.73889 11.2667 8.73889 10.9778V9.31667C8.73889 8.95555 9.02778 8.73889 9.31667 8.73889H10.9778C11.3389 8.73889 11.5556 9.02778 11.5556 9.31667V10.9778Z" fill="#9867EA"/>
<path d="M3.75556 7.22222H2.02222C0.938889 7.22222 0 8.16111 0 9.24444V10.9056C0 12.0611 0.938889 13 2.02222 13H3.68333C4.83889 13 5.70555 12.0611 5.70555 10.9778V9.31667C5.77778 8.16111 4.83889 7.22222 3.75556 7.22222ZM4.33333 10.9778C4.33333 11.2667 4.04444 11.5556 3.75556 11.5556H2.02222C1.73333 11.5556 1.44444 11.2667 1.44444 10.9778V9.31667C1.44444 8.95555 1.73333 8.66667 2.02222 8.66667H3.68333C4.04444 8.66667 4.33333 8.95556 4.33333 9.24444V10.9778Z" fill="#9867EA"/>
</g>
</svg>
