<svg width="12" height="14" viewBox="0 0 12 14" fill="none" xmlns="http://www.w3.org/2000/svg">
<g id="Vector">
<path d="M7.33371 9.71043C4.76229 9.71043 2.67086 7.53352 2.67086 4.857C2.67086 2.18047 4.76229 0 7.33371 0C9.90514 0 12 2.17691 12 4.857C12 7.53352 9.90857 9.71043 7.33371 9.71043ZM7.33371 0.963549C5.27314 0.963549 3.59314 2.70864 3.59314 4.857C3.59314 7.00179 5.26971 8.75045 7.33371 8.75045C9.39771 8.75045 11.0743 7.00179 11.0743 4.857C11.0743 2.70864 9.39771 0.963549 7.33371 0.963549Z" fill="#9867EA"/>
<path d="M7.512 7.16238H6.288V6.19883H7.512C7.74171 6.19883 7.92686 6.00612 7.92686 5.76701C7.92686 5.53148 7.74171 5.33877 7.512 5.33877H7.16228C6.42514 5.33877 5.82514 4.71425 5.82514 3.94698C5.82514 3.17971 6.42514 2.55519 7.16228 2.55519H8.38629V3.51874H7.16228C6.93257 3.51874 6.74743 3.71144 6.74743 3.94698C6.74743 4.18608 6.93257 4.37879 7.16228 4.37879H7.512C8.24914 4.37879 8.84914 5.00331 8.84914 5.77058C8.84914 6.53429 8.24914 7.16238 7.512 7.16238Z" fill="#9867EA"/>
<path d="M7.8 1.94137H6.87429V3.03696H7.8V1.94137Z" fill="#9867EA"/>
<path d="M7.8 6.6806H6.87429V7.77619H7.8V6.6806Z" fill="#9867EA"/>
<path d="M9.24686 9.02524V14H0V1.48815H4.42286L3.672 2.4517H0.925714V13.04H8.32457V9.23222L9.24686 9.02524Z" fill="#9867EA"/>
<path d="M9.24686 9.02524V14H0V1.48815H4.42286L3.672 2.4517H0.925714V13.04H8.32457V9.23222L9.24686 9.02524Z" fill="#9867EA"/>
<path d="M6.936 10.1529H2.31086V11.1165H6.936V10.1529Z" fill="#9867EA"/>
<path d="M5.54743 9.1894H2.31086V8.22585H4.50857" fill="#9867EA"/>
<path d="M3.58286 7.2623H2.31086V6.30232H3.19543" fill="#9867EA"/>
</g>
</svg>
