<svg width="18" height="18" viewBox="0 0 18 18" fill="none" xmlns="http://www.w3.org/2000/svg">
<g id="3671842_question_icon 2" clip-path="url(#clip0_1_724)">
<path id="Vector" d="M9 18C6.61305 18 4.32387 17.0518 2.63604 15.364C0.948211 13.6761 0 11.3869 0 9C0 6.61305 0.948211 4.32387 2.63604 2.63604C4.32387 0.948211 6.61305 0 9 0C11.3869 0 13.6761 0.948211 15.364 2.63604C17.0518 4.32387 18 6.61305 18 9C18 11.3869 17.0518 13.6761 15.364 15.364C13.6761 17.0518 11.3869 18 9 18ZM10.8 6.3C10.8 6.552 10.611 7.02 10.422 7.2L9 8.622C8.487 9.144 8.1 10.062 8.1 10.8V11.7H9.9V10.8C9.9 10.539 10.089 10.08 10.278 9.9L11.7 8.478C12.213 7.956 12.6 7.038 12.6 6.3C12.6 5.34522 12.2207 4.42955 11.5456 3.75442C10.8705 3.07928 9.95478 2.7 9 2.7C8.04522 2.7 7.12955 3.07928 6.45442 3.75442C5.77928 4.42955 5.4 5.34522 5.4 6.3H7.2C7.2 5.82261 7.38964 5.36477 7.72721 5.02721C8.06477 4.68964 8.52261 4.5 9 4.5C9.47739 4.5 9.93523 4.68964 10.2728 5.02721C10.6104 5.36477 10.8 5.82261 10.8 6.3ZM8.1 13.5V15.3H9.9V13.5H8.1Z" fill="#3F4C5A"/>
</g>
<defs>
<clipPath id="clip0_1_724">
<rect width="18" height="18" fill="white"/>
</clipPath>
</defs>
</svg>
