<svg width="22" height="21" viewBox="0 0 22 21" fill="none" xmlns="http://www.w3.org/2000/svg">
<g id="Union">
<path fill-rule="evenodd" clip-rule="evenodd" d="M5.448 1.06708e-06C4.54954 -2.73648e-05 3.8003 -5.10737e-05 3.20552 0.0799144C2.57773 0.164319 2.01093 0.34999 1.55546 0.80546C1.09999 1.26093 0.914319 1.82773 0.829914 2.45552C0.749949 3.0503 0.749973 3.79951 0.750001 4.69798V4.802C0.749973 5.70047 0.749949 6.44971 0.829914 7.04448C0.914319 7.67228 1.09999 8.23908 1.55546 8.69455C2.01093 9.15002 2.57773 9.33569 3.20552 9.42009C3.8003 9.50006 4.54951 9.50003 5.44798 9.5H5.552C6.45047 9.50003 7.19971 9.50006 7.79448 9.42009C8.42228 9.33569 8.98908 9.15002 9.44455 8.69455C9.90002 8.23908 10.0857 7.67228 10.1701 7.04448C10.2501 6.44971 10.25 5.7005 10.25 4.80203V4.69801C10.25 3.79954 10.2501 3.0503 10.1701 2.45552C10.0857 1.82773 9.90002 1.26093 9.44455 0.80546C8.98908 0.34999 8.42228 0.164319 7.79448 0.0799144C7.19971 -5.10737e-05 6.4505 -2.73648e-05 5.55203 1.06708e-06H5.448ZM2.61612 1.86612C2.74644 1.7358 2.94393 1.62858 3.4054 1.56654C3.88843 1.5016 4.53599 1.5 5.5 1.5C6.46401 1.5 7.11157 1.5016 7.59461 1.56654C8.05607 1.62858 8.25357 1.7358 8.38389 1.86612C8.5142 1.99644 8.62143 2.19393 8.68347 2.6554C8.74841 3.13843 8.75 3.78599 8.75 4.75C8.75 5.71401 8.74841 6.36157 8.68347 6.84461C8.62143 7.30607 8.5142 7.50357 8.38389 7.63389C8.25357 7.7642 8.05607 7.87143 7.59461 7.93347C7.11157 7.99841 6.46401 8 5.5 8C4.53599 8 3.88843 7.99841 3.4054 7.93347C2.94393 7.87143 2.74644 7.7642 2.61612 7.63389C2.4858 7.50357 2.37858 7.30607 2.31654 6.84461C2.2516 6.36157 2.25 5.71401 2.25 4.75C2.25 3.78599 2.2516 3.13843 2.31654 2.6554C2.37858 2.19393 2.4858 1.99644 2.61612 1.86612Z" fill="#19154E"/>
<path fill-rule="evenodd" clip-rule="evenodd" d="M16.448 11C15.5495 11 14.8003 10.9999 14.2055 11.0799C13.5777 11.1643 13.0109 11.35 12.5555 11.8055C12.1 12.2609 11.9143 12.8277 11.8299 13.4555C11.7499 14.0503 11.75 14.7995 11.75 15.698V15.802C11.75 16.7005 11.7499 17.4497 11.8299 18.0445C11.9143 18.6723 12.1 19.2391 12.5555 19.6945C13.0109 20.15 13.5777 20.3357 14.2055 20.4201C14.8003 20.5001 15.5495 20.5 16.4479 20.5H16.552C17.4504 20.5 18.1997 20.5001 18.7945 20.4201C19.4223 20.3357 19.9891 20.15 20.4445 19.6945C20.9 19.2391 21.0857 18.6723 21.1701 18.0445C21.2501 17.4497 21.25 16.7005 21.25 15.8021V15.698C21.25 14.7996 21.2501 14.0503 21.1701 13.4555C21.0857 12.8277 20.9 12.2609 20.4445 11.8055C19.9891 11.35 19.4223 11.1643 18.7945 11.0799C18.1997 10.9999 17.4505 11 16.552 11H16.448ZM13.6161 12.8661C13.7464 12.7358 13.9439 12.6286 14.4054 12.5665C14.8884 12.5016 15.536 12.5 16.5 12.5C17.464 12.5 18.1116 12.5016 18.5946 12.5665C19.0561 12.6286 19.2536 12.7358 19.3839 12.8661C19.5142 12.9964 19.6214 13.1939 19.6835 13.6554C19.7484 14.1384 19.75 14.786 19.75 15.75C19.75 16.714 19.7484 17.3616 19.6835 17.8446C19.6214 18.3061 19.5142 18.5036 19.3839 18.6339C19.2536 18.7642 19.0561 18.8714 18.5946 18.9335C18.1116 18.9984 17.464 19 16.5 19C15.536 19 14.8884 18.9984 14.4054 18.9335C13.9439 18.8714 13.7464 18.7642 13.6161 18.6339C13.4858 18.5036 13.3786 18.3061 13.3165 17.8446C13.2516 17.3616 13.25 16.714 13.25 15.75C13.25 14.786 13.2516 14.1384 13.3165 13.6554C13.3786 13.1939 13.4858 12.9964 13.6161 12.8661Z" fill="#19154E"/>
<path fill-rule="evenodd" clip-rule="evenodd" d="M5.448 11H5.552C6.45048 11 7.1997 10.9999 7.79448 11.0799C8.42228 11.1643 8.98908 11.35 9.44455 11.8055C9.90002 12.2609 10.0857 12.8277 10.1701 13.4555C10.2501 14.0503 10.25 14.7995 10.25 15.698V15.802C10.25 16.7005 10.2501 17.4497 10.1701 18.0445C10.0857 18.6723 9.90002 19.2391 9.44455 19.6945C8.98908 20.15 8.42228 20.3357 7.79448 20.4201C7.19971 20.5001 6.45051 20.5 5.55206 20.5H5.44801C4.54955 20.5 3.80029 20.5001 3.20552 20.4201C2.57773 20.3357 2.01093 20.15 1.55546 19.6945C1.09999 19.2391 0.914319 18.6723 0.829914 18.0445C0.749949 17.4497 0.749973 16.7005 0.750001 15.802V15.698C0.749973 14.7995 0.749949 14.0503 0.829914 13.4555C0.914319 12.8277 1.09999 12.2609 1.55546 11.8055C2.01093 11.35 2.57773 11.1643 3.20552 11.0799C3.8003 10.9999 4.54952 11 5.448 11ZM3.4054 12.5665C2.94393 12.6286 2.74644 12.7358 2.61612 12.8661C2.4858 12.9964 2.37858 13.1939 2.31654 13.6554C2.2516 14.1384 2.25 14.786 2.25 15.75C2.25 16.714 2.2516 17.3616 2.31654 17.8446C2.37858 18.3061 2.4858 18.5036 2.61612 18.6339C2.74644 18.7642 2.94393 18.8714 3.4054 18.9335C3.88843 18.9984 4.53599 19 5.5 19C6.46401 19 7.11157 18.9984 7.59461 18.9335C8.05607 18.8714 8.25357 18.7642 8.38389 18.6339C8.5142 18.5036 8.62143 18.3061 8.68347 17.8446C8.74841 17.3616 8.75 16.714 8.75 15.75C8.75 14.786 8.74841 14.1384 8.68347 13.6554C8.62143 13.1939 8.5142 12.9964 8.38389 12.8661C8.25357 12.7358 8.05607 12.6286 7.59461 12.5665C7.11157 12.5016 6.46401 12.5 5.5 12.5C4.53599 12.5 3.88843 12.5016 3.4054 12.5665Z" fill="#19154E"/>
<path fill-rule="evenodd" clip-rule="evenodd" d="M16.448 1.06708e-06C15.5495 -2.73648e-05 14.8003 -5.10737e-05 14.2055 0.0799144C13.5777 0.164319 13.0109 0.34999 12.5555 0.80546C12.1 1.26093 11.9143 1.82773 11.8299 2.45552C11.7499 3.0503 11.75 3.79952 11.75 4.698V4.802C11.75 5.70048 11.7499 6.4497 11.8299 7.04448C11.9143 7.67228 12.1 8.23908 12.5555 8.69455C13.0109 9.15002 13.5777 9.33569 14.2055 9.42009C14.8003 9.50006 15.5495 9.50003 16.448 9.5H16.552C17.4505 9.50003 18.1997 9.50006 18.7945 9.42009C19.4223 9.33569 19.9891 9.15002 20.4445 8.69455C20.9 8.23908 21.0857 7.67228 21.1701 7.04448C21.2501 6.44971 21.25 5.7005 21.25 4.80203V4.69801C21.25 3.79954 21.2501 3.0503 21.1701 2.45552C21.0857 1.82773 20.9 1.26093 20.4445 0.80546C19.9891 0.34999 19.4223 0.164319 18.7945 0.0799144C18.1997 -5.10737e-05 17.4505 -2.73648e-05 16.552 1.06708e-06H16.448ZM13.6161 1.86612C13.7464 1.7358 13.9439 1.62858 14.4054 1.56654C14.8884 1.5016 15.536 1.5 16.5 1.5C17.464 1.5 18.1116 1.5016 18.5946 1.56654C19.0561 1.62858 19.2536 1.7358 19.3839 1.86612C19.5142 1.99644 19.6214 2.19393 19.6835 2.6554C19.7484 3.13843 19.75 3.78599 19.75 4.75C19.75 5.71401 19.7484 6.36157 19.6835 6.84461C19.6214 7.30607 19.5142 7.50357 19.3839 7.63389C19.2536 7.7642 19.0561 7.87143 18.5946 7.93347C18.1116 7.99841 17.464 8 16.5 8C15.536 8 14.8884 7.99841 14.4054 7.93347C13.9439 7.87143 13.7464 7.7642 13.6161 7.63389C13.4858 7.50357 13.3786 7.30607 13.3165 6.84461C13.2516 6.36157 13.25 5.71401 13.25 4.75C13.25 3.78599 13.2516 3.13843 13.3165 2.6554C13.3786 2.19393 13.4858 1.99644 13.6161 1.86612Z" fill="#19154E"/>
</g>
</svg>
