<svg width="22" height="22" viewBox="0 0 22 22" fill="none" xmlns="http://www.w3.org/2000/svg">
<g id="Vector">
<path fill-rule="evenodd" clip-rule="evenodd" d="M13.2544 0.114773C12.1584 -0.191165 11.132 0.139562 10.4026 0.80979C9.68445 1.46963 9.25 2.45576 9.25 3.51087V10.2054C9.25 11.4728 10.2775 12.5003 11.5449 12.5003H18.2394C19.2945 12.5003 20.2806 12.0658 20.9405 11.3477C21.6107 10.6183 21.9414 9.59186 21.6355 8.49587C20.5034 4.44027 17.31 1.24687 13.2544 0.114773ZM10.75 3.51087C10.75 2.85956 11.0201 2.27942 11.4175 1.91432C11.8035 1.55959 12.3035 1.40668 12.8511 1.55954C16.4013 2.55055 19.1997 5.349 20.1907 8.89917C20.3436 9.44678 20.1907 9.94674 19.8359 10.3328C19.4708 10.7301 18.8907 11.0003 18.2394 11.0003H11.5449C11.1059 11.0003 10.75 10.6444 10.75 10.2054V3.51087Z" fill="#19154E"/>
<path d="M7.67232 3.46579C8.0675 3.34167 8.28724 2.9207 8.16312 2.52552C8.039 2.13034 7.61803 1.9106 7.22285 2.03472C3.18231 3.30378 0.25 7.07818 0.25 11.5394C0.25 17.0406 4.70962 21.5003 10.2108 21.5003C14.6721 21.5003 18.4465 18.5679 19.7155 14.5274C19.8397 14.1322 19.6199 13.7113 19.2247 13.5871C18.8296 13.463 18.4086 13.6828 18.2845 14.0779C17.2061 17.5113 13.9982 20.0003 10.2108 20.0003C5.53805 20.0003 1.75 16.2122 1.75 11.5394C1.75 7.75209 4.23899 4.54414 7.67232 3.46579Z" fill="#19154E"/>
</g>
</svg>
