<svg width="22" height="14" viewBox="0 0 22 14" fill="none" xmlns="http://www.w3.org/2000/svg">
<g id="Union">
<path d="M1.5 6.75C1.5 3.85051 3.85051 1.5 6.75 1.5C7.16421 1.5 7.5 1.16421 7.5 0.75C7.5 0.335786 7.16421 0 6.75 0C3.02208 0 0 3.02208 0 6.75C0 10.4779 3.02208 13.5 6.75 13.5C10.4779 13.5 13.5 10.4779 13.5 6.75C13.5 6.33579 13.1642 6 12.75 6C12.3358 6 12 6.33579 12 6.75C12 9.6495 9.6495 12 6.75 12C3.85051 12 1.5 9.6495 1.5 6.75Z" fill="#8B3DFF"/>
<path d="M20 6.75C20 9.6495 17.6495 12 14.75 12C14.3358 12 14 12.3358 14 12.75C14 13.1642 14.3358 13.5 14.75 13.5C18.4779 13.5 21.5 10.4779 21.5 6.75C21.5 3.02208 18.4779 0 14.75 0C11.0221 0 8 3.02208 8 6.75C8 7.16421 8.33579 7.5 8.75 7.5C9.16421 7.5 9.5 7.16421 9.5 6.75C9.5 3.8505 11.8505 1.5 14.75 1.5C17.6495 1.5 20 3.8505 20 6.75Z" fill="#8B3DFF"/>
</g>
</svg>
