<svg width="146" height="34" viewBox="0 0 146 34" fill="none" xmlns="http://www.w3.org/2000/svg">
<g id="Logo" clip-path="url(#clip0_404_256)">
<g id="Layer 1">
<g id="Group">
<g id="Group_2">
<path id="Vector" d="M29.523 11.4692H32.6209V13.7826H29.523V24.9505H27.1135V13.7826H24.9688V11.4692H27.1135C27.1135 8.65068 28.0402 6.01825 31.7207 6.01825C32.0913 6.01825 32.3032 6.01825 32.6209 6.07143V8.0657C32.462 8.0657 32.1708 8.0391 31.9854 8.0391C29.8142 8.0391 29.5495 9.44838 29.523 11.4692Z" fill="#2C3652"/>
<path id="Vector_2" d="M48.1635 18.2231C48.1635 22.1053 45.1715 25.2961 41.1203 25.2961C37.0692 25.2961 34.0771 22.1053 34.0771 18.2231C34.0771 14.341 37.0692 11.1501 41.1203 11.1501C45.1715 11.1501 48.1635 14.341 48.1635 18.2231ZM45.701 18.2231C45.701 15.4578 43.7681 13.4369 41.1203 13.4369C38.4725 13.4369 36.5661 15.4578 36.5661 18.2231C36.5661 20.9885 38.4725 22.9828 41.1203 22.9828C43.7681 22.9828 45.701 20.9619 45.701 18.2231Z" fill="#2C3652"/>
<path id="Vector_3" d="M57.6956 11.1501V13.8889C53.7239 13.4103 53.2208 16.4416 53.2208 18.9145V24.9505H50.8113V11.4692H53.2208V13.8092C54.121 12.001 55.9745 11.1501 57.6956 11.1501Z" fill="#2C3652"/>
<path id="Vector_4" d="M72.2586 19.2602H61.5879C61.9586 21.4671 63.6002 22.9828 66.2216 22.9828C67.6779 22.9828 69.0018 22.4244 69.7431 21.4671L71.729 22.7435C70.5375 24.3655 68.5781 25.2961 66.2216 25.2961C61.7732 25.2961 59.0195 22.1053 59.0195 18.2231C59.0195 14.341 61.8792 11.1501 65.8244 11.1501C69.4784 11.1501 72.894 14.2346 72.2586 19.2602ZM69.8226 17.1861C69.5048 14.8994 68.1015 13.4369 65.8244 13.4369C63.5473 13.4369 61.9586 14.9525 61.5879 17.1861H69.8226Z" fill="#2C3652"/>
<path id="Vector_5" d="M84.4648 20.9087C84.4648 23.3019 82.7703 25.2961 79.1957 25.2961C76.5479 25.2961 74.3238 24.2325 73.7942 22.2117L76.1507 21.414C76.3626 22.1053 77.0775 23.0626 79.2487 23.0626C80.9962 23.0626 81.9759 22.3446 81.9759 21.1481C81.9759 19.5792 79.7253 19.5792 77.8718 19.1538C75.3564 18.5954 74.2708 17.3723 74.2708 15.378C74.2708 12.9051 76.3096 11.1501 79.2222 11.1501C81.3934 11.1501 83.3263 12.2669 83.8029 14.2612L81.5523 14.8728C81.314 14.1282 80.5196 13.3305 79.0104 13.3305C77.6865 13.3305 76.7068 14.0751 76.7068 15.1919C76.7068 16.7075 78.5602 16.8139 80.096 17.1329C83.3792 17.8243 84.4648 18.8879 84.4648 20.9087Z" fill="#2C3652"/>
<path id="Vector_6" d="M97.1215 20.829L99.1868 21.9458C97.9688 23.94 95.8505 25.2961 93.2292 25.2961C89.1781 25.2961 86.186 22.1053 86.186 18.2231C86.186 14.341 89.1781 11.1501 93.2292 11.1501C95.8505 11.1501 97.9688 12.5062 99.1868 14.4739L97.1215 15.6173C96.3271 14.2878 94.9238 13.4369 93.2292 13.4369C90.5814 13.4369 88.6485 15.4578 88.6485 18.2231C88.6485 20.9885 90.5814 22.9828 93.2292 22.9828C94.9238 22.9828 96.3271 22.1585 97.1215 20.829Z" fill="#2C3652"/>
<path id="Vector_7" d="M108.322 11.1501V13.8889C104.35 13.4103 103.847 16.4416 103.847 18.9145V24.9505H101.438V11.4692H103.847V13.8092C104.747 12.001 106.601 11.1501 108.322 11.1501Z" fill="#2C3652"/>
<path id="Vector_8" d="M110.811 7.69342C110.811 6.9489 111.42 6.31073 112.187 6.31073C112.955 6.31073 113.564 6.9489 113.564 7.69342C113.564 8.43795 112.955 9.07611 112.187 9.07611C111.42 9.07611 110.811 8.46454 110.811 7.69342ZM110.969 11.4692H113.405V24.9505H110.969V11.4692Z" fill="#2C3652"/>
<path id="Vector_9" d="M130.828 18.2232C130.828 21.7597 128.313 25.2962 124.129 25.2962C121.799 25.2962 120.263 24.3389 119.257 23.0626V24.9505H116.848V6.33734H119.257V13.3572C120.263 12.1074 121.799 11.1502 124.129 11.1502C128.313 11.1502 130.828 14.6867 130.828 18.2232ZM128.339 18.2232C128.339 15.511 126.671 13.4369 123.891 13.4369C120.952 13.4369 119.257 15.5641 119.257 18.2232C119.257 20.8822 120.952 22.9828 123.891 22.9828C126.671 22.9828 128.339 20.9354 128.339 18.2232Z" fill="#2C3652"/>
<path id="Vector_10" d="M145.92 19.2602H135.25C135.62 21.4671 137.262 22.9828 139.883 22.9828C141.34 22.9828 142.664 22.4244 143.405 21.4671L145.391 22.7435C144.199 24.3655 142.24 25.2961 139.883 25.2961C135.435 25.2961 132.681 22.1053 132.681 18.2231C132.681 14.341 135.541 11.1501 139.486 11.1501C143.14 11.1501 146.556 14.2346 145.92 19.2602ZM143.484 17.1861C143.167 14.8994 141.763 13.4369 139.486 13.4369C137.209 13.4369 135.62 14.9525 135.25 17.1861H143.484Z" fill="#2C3652"/>
</g>
<g id="Group_3">
<path id="Vector_11" d="M0 9.71429L17.555 0V7.9682L0 17.7445V9.71429Z" fill="#8B3DFF"/>
<path id="Vector_12" d="M6.69012 34V25.7482L17.555 19.9072V11.9833L0 21.7596V30.2951L6.69012 34Z" fill="#8B3DFF"/>
</g>
</g>
</g>
</g>
<defs>
<clipPath id="clip0_404_256">
<rect width="146" height="34" fill="white"/>
</clipPath>
</defs>
</svg>
