<svg width="22" height="20" viewBox="0 0 22 20" fill="none" xmlns="http://www.w3.org/2000/svg">
<path id="Vector" fill-rule="evenodd" clip-rule="evenodd" d="M7.21967 0.21967C7.51256 -0.0732233 7.98744 -0.0732233 8.28033 0.21967L10.2803 2.21967C10.4948 2.43417 10.559 2.75676 10.4429 3.03701C10.3268 3.31727 10.0533 3.5 9.75 3.5H7.75C4.29822 3.5 1.5 6.29822 1.5 9.75C1.5 13.2017 4.29846 16 7.75028 16H8.25C8.66421 16 9 16.3358 9 16.75C9 17.1642 8.66421 17.5 8.25 17.5H7.75028C3.47011 17.5 0 14.0302 0 9.75C0 5.46979 3.46979 2 7.75 2H7.93934L7.21967 1.28033C6.92678 0.987437 6.92678 0.512563 7.21967 0.21967ZM12.5 2.75C12.5 2.33579 12.8358 2 13.25 2H13.75C18.0302 2 21.5 5.46979 21.5 9.75C21.5 14.0302 18.0302 17.5 13.75 17.5H13.5607L14.2803 18.2197C14.5732 18.5126 14.5732 18.9874 14.2803 19.2803C13.9874 19.5732 13.5126 19.5732 13.2197 19.2803L11.2197 17.2803C11.0052 17.0658 10.941 16.7432 11.0571 16.463C11.1732 16.1827 11.4467 16 11.75 16H13.75C17.2018 16 20 13.2018 20 9.75C20 6.29822 17.2018 3.5 13.75 3.5H13.25C12.8358 3.5 12.5 3.16421 12.5 2.75Z" fill="#19154E"/>
</svg>
