<svg width="21" height="26" viewBox="0 0 21 26" fill="none" xmlns="http://www.w3.org/2000/svg">
<g id="Group 15">
<g id="Group 11">
<path id="Vector" d="M16.2024 11.0011C16.2024 9.40948 15.5701 7.88309 14.4447 6.75767C13.3193 5.63225 11.7929 5 10.2013 5C8.60972 5 7.08333 5.63225 5.95791 6.75767C4.83249 7.88309 4.20024 9.40948 4.20024 11.0011C4.20024 18.0023 1.19971 20.0027 1.19971 20.0027H19.2029C19.2029 20.0027 16.2024 18.0023 16.2024 11.0011Z" stroke="#19154E" stroke-width="2" stroke-linecap="round" stroke-linejoin="round"/>
<path id="Vector_2" d="M11.9318 24.0034C11.756 24.3065 11.5036 24.5581 11.1999 24.733C10.8962 24.9079 10.5519 25 10.2015 25C9.85106 25 9.50676 24.9079 9.20309 24.733C8.89942 24.5581 8.64703 24.3065 8.47119 24.0034" stroke="#19154E" stroke-width="2" stroke-linecap="round" stroke-linejoin="round"/>
</g>
<circle id="Ellipse 4" cx="13.5" cy="4.5" r="3.5" fill="#FF3E3E" stroke="white" stroke-width="2"/>
</g>
</svg>
