<svg width="19" height="18" viewBox="0 0 19 18" fill="none" xmlns="http://www.w3.org/2000/svg">
<g id="search">
<path id="Vector" fill-rule="evenodd" clip-rule="evenodd" d="M8.8314 1.25581C4.78559 1.25581 1.50581 4.53559 1.50581 8.5814C1.50581 12.6272 4.78559 15.907 8.8314 15.907C12.8772 15.907 16.157 12.6272 16.157 8.5814C16.157 4.53559 12.8772 1.25581 8.8314 1.25581ZM0.25 8.5814C0.25 3.84202 4.09202 0 8.8314 0C13.5708 0 17.4128 3.84202 17.4128 8.5814C17.4128 10.7251 16.6268 12.6852 15.3272 14.1892L18.0661 16.9281C18.3113 17.1733 18.3113 17.5709 18.0661 17.8161C17.8209 18.0613 17.4233 18.0613 17.1781 17.8161L14.4392 15.0772C12.9352 16.3768 10.9751 17.1628 8.8314 17.1628C4.09202 17.1628 0.25 13.3208 0.25 8.5814Z" fill="#3F4C5A"/>
</g>
</svg>
